<svg width="24" height="24" viewBox="0 0 24 24" fill="none" xmlns="http://www.w3.org/2000/svg">
<path d="M6 21.5001C4.067 21.5001 2.5 19.9331 2.5 18.0001C2.5 16.0671 4.067 14.5001 6 14.5001C7.5852 14.5001 8.92427 15.554 9.35481 16.9993L15 16.9995V15.0001L17 14.9995V9.24345L14.757 6.99944H9V9.00009H3V3.00009H9V4.99945H14.757L18 1.75745L22.2426 6.00009L19 9.24145V14.9995L21 15.0001V21.0001H15V18.9995L9.35499 19.0004C8.92464 20.446 7.58543 21.5001 6 21.5001ZM6 16.5001C5.17157 16.5001 4.5 17.1717 4.5 18.0001C4.5 18.8286 5.17157 19.5001 6 19.5001C6.82843 19.5001 7.5 18.8286 7.5 18.0001C7.5 17.1717 6.82843 16.5001 6 16.5001ZM19 17.0001H17V19.0001H19V17.0001ZM18 4.58587L16.5858 6.00009L18 7.4143L19.4142 6.00009L18 4.58587ZM7 5.00009H5V7.00009H7V5.00009Z" fill="#5153A0"/>
</svg>
