<svg width="20" height="31" viewBox="0 0 20 31" fill="none" xmlns="http://www.w3.org/2000/svg">
<path d="M9.44 26.688C7.60534 26.688 5.83467 26.464 4.128 26.016C2.44267 25.5467 1.06667 24.9493 2.98023e-06 24.224L2.08 19.552C3.08267 20.192 4.23467 20.7253 5.536 21.152C6.85867 21.5573 8.17067 21.76 9.472 21.76C10.3467 21.76 11.0507 21.6853 11.584 21.536C12.1173 21.3653 12.5013 21.152 12.736 20.896C12.992 20.6187 13.12 20.2987 13.12 19.936C13.12 19.424 12.8853 19.0187 12.416 18.72C11.9467 18.4213 11.3387 18.176 10.592 17.984C9.84534 17.792 9.01334 17.6 8.096 17.408C7.2 17.216 6.29334 16.9707 5.376 16.672C4.48 16.3733 3.65867 15.9893 2.912 15.52C2.16534 15.0293 1.55734 14.4 1.088 13.632C0.61867 12.8427 0.384003 11.8507 0.384003 10.656C0.384003 9.31199 0.74667 8.09599 1.472 7.00799C2.21867 5.91999 3.328 5.04532 4.8 4.38399C6.272 3.72266 8.10667 3.39199 10.304 3.39199C11.776 3.39199 13.216 3.56266 14.624 3.90399C16.0533 4.22399 17.3227 4.70399 18.432 5.34399L16.48 10.048C15.4133 9.47199 14.3573 9.04532 13.312 8.76799C12.2667 8.46932 11.2533 8.31999 10.272 8.31999C9.39734 8.31999 8.69334 8.41599 8.16 8.60799C7.62667 8.77866 7.24267 9.01332 7.008 9.31199C6.77334 9.61066 6.656 9.95199 6.656 10.336C6.656 10.8267 6.88 11.2213 7.328 11.52C7.79734 11.7973 8.40534 12.032 9.152 12.224C9.92 12.3947 10.752 12.576 11.648 12.768C12.5653 12.96 13.472 13.2053 14.368 13.504C15.2853 13.7813 16.1173 14.1653 16.864 14.656C17.6107 15.1253 18.208 15.7547 18.656 16.544C19.1253 17.312 19.36 18.2827 19.36 19.456C19.36 20.7573 18.9867 21.9627 18.24 23.072C17.5147 24.16 16.416 25.0347 14.944 25.696C13.4933 26.3573 11.6587 26.688 9.44 26.688ZM7.968 30.08V25.504H11.808V30.08H7.968ZM7.968 4.54399V-1.14441e-05H11.808V4.54399H7.968Z" fill="#FFA500"/>
</svg>
