<svg width="80" height="80" viewBox="0 0 80 80" fill="none" xmlns="http://www.w3.org/2000/svg">
<g style="mix-blend-mode:luminosity">
<path d="M40.1992 71.4185C57.9514 71.4185 72.3424 57.0275 72.3424 39.2753C72.3424 21.5231 57.9514 7.13208 40.1992 7.13208C22.447 7.13208 8.05603 21.5231 8.05603 39.2753C8.05603 57.0275 22.447 71.4185 40.1992 71.4185Z" fill="#50B651"/>
<path opacity="0.663" fill-rule="evenodd" clip-rule="evenodd" d="M72.244 39.1848C72.244 56.9928 57.808 71.4288 40.004 71.4288C22.2 71.4288 7.76001 56.9928 7.76001 39.1848C7.76001 31.3072 7.98081 30.136 11.0816 25.6512C11.0816 25.6512 10.9216 30.7168 14.636 33.7312C16.9456 35.604 19.356 34.252 23.768 32.22C28.5408 30.02 32.4208 28.6008 35.448 28.9752C40.008 29.54 54.0632 37.9808 61.3984 36.3C67.2584 34.96 66.64 21.144 66.64 21.144C73.04 27.3936 72.244 31.6176 72.244 39.1848Z" fill="url(#paint0_linear_8475_121)"/>
<path opacity="0.586" fill-rule="evenodd" clip-rule="evenodd" d="M53.84 62.8689C65.5013 51.8998 67.4397 39.3334 59.6552 25.1697C59.6946 25.1985 60.1762 23.5366 61.1 20.1841C65.2429 25.2011 67.4458 31.3937 67.7088 38.7617C67.7066 48.3051 63.0837 56.3409 53.84 62.8689Z" fill="url(#paint1_linear_8475_121)"/>
<path opacity="0.744" fill-rule="evenodd" clip-rule="evenodd" d="M48.3088 20.2504C42.68 17.1352 36.2224 10.8688 37.0808 9.55283C37.9392 8.23683 49.0808 8.46323 54.7104 11.5784C60.34 14.6936 65.1312 24.0384 64.2736 25.3544C63.416 26.6704 53.9376 23.3656 48.3088 20.2504Z" fill="url(#paint2_radial_8475_121)"/>
<path fill-rule="evenodd" clip-rule="evenodd" d="M53.212 47.1912C48.5424 47.1912 44.7568 43.2976 44.7568 38.4952C44.7568 33.6928 48.5424 29.8 53.212 29.8C57.8816 29.8 61.668 33.6928 61.668 38.4952C61.668 43.2976 57.8824 47.1912 53.212 47.1912ZM53.272 44.4328C56.1864 44.4328 58.552 41.7744 58.552 38.4952C58.552 35.216 56.1864 32.56 53.272 32.56C50.3576 32.56 47.992 35.2184 47.992 38.4968C47.992 41.7752 50.3576 44.4328 53.272 44.4328Z" fill="white"/>
<path fill-rule="evenodd" clip-rule="evenodd" d="M35.7664 22.7983H41.8592V47.0943H38.5144V25.4631H35.7664V22.7983Z" fill="white"/>
<path fill-rule="evenodd" clip-rule="evenodd" d="M31.2256 30.0472H34.388V50.3368C34.388 52.1856 32.4432 54.1112 30.548 54.94C29.652 55.3315 27.9987 55.564 25.588 55.6376V53.6192C27.9459 53.3563 29.5374 52.8317 30.3624 52.0456C30.8385 51.384 31.1361 50.6109 31.2264 49.8008V43.84C30.3811 45.6336 29.3166 46.8227 28.0328 47.4072C26.6984 48.1272 23.9824 48.0088 22.8736 47.4072C21.7648 46.8056 20.1384 45.2216 19.3928 42.8624C19.1864 42.2112 18.6728 40.4392 18.7264 38.5616C18.7744 36.7736 19.3664 34.8816 19.8584 34.104C20.7032 32.776 22.0352 31.1128 24.0528 30.4176C25.0384 30.0779 26.8651 29.9557 29.5328 30.0512V32.0584C27.5504 31.9245 26.3136 31.9915 25.8224 32.2592C25.0856 32.6592 23.4224 33.1528 22.8736 36.7776C22.3248 40.4024 22.8896 43.3688 24.6296 44.2976C25.2256 44.6176 26.28 44.996 27.2544 44.6624C29.1264 44.0224 30.888 41.74 31.0224 40.1936C31.1579 38.6245 31.2256 35.2424 31.2256 30.0472Z" fill="white"/>
<path fill-rule="evenodd" clip-rule="evenodd" d="M40.24 1.67993C19.536 1.67993 2.75122 18.4639 2.75122 39.1679C2.75122 59.8719 19.536 76.6567 40.24 76.6567C60.944 76.6567 77.7288 59.8719 77.7288 39.1679C77.7288 18.4639 60.944 1.67993 40.24 1.67993ZM40.24 70.8239C22.7576 70.8239 8.58482 56.6511 8.58482 39.1687C8.58482 28.3079 14.0544 18.7247 22.3888 13.0247C27.6451 9.42479 33.8692 7.50293 40.24 7.51273C57.7224 7.51273 71.8952 21.6847 71.8952 39.1679C71.8964 41.3417 71.6747 43.5098 71.2336 45.6383C68.2472 60.0183 55.5048 70.8231 40.24 70.8231V70.8239Z" fill="white"/>
</g>
<defs>
<linearGradient id="paint0_linear_8475_121" x1="38.7584" y1="25.5472" x2="42.8912" y2="62.8696" gradientUnits="userSpaceOnUse">
<stop stop-color="#123214"/>
<stop offset="0.46" stop-color="#3E7C37"/>
<stop offset="0.91" stop-color="#5FBB46"/>
</linearGradient>
<linearGradient id="paint1_linear_8475_121" x1="62.6339" y1="23.1211" x2="62.6339" y2="53.3014" gradientUnits="userSpaceOnUse">
<stop stop-color="white" stop-opacity="0"/>
<stop offset="0.64" stop-color="white" stop-opacity="0.43"/>
<stop offset="1" stop-color="white" stop-opacity="0.42"/>
</linearGradient>
<radialGradient id="paint2_radial_8475_121" cx="0" cy="0" r="1" gradientTransform="matrix(14.1823 7.15174 -3.39405 5.69715 51.3623 17.6651)" gradientUnits="userSpaceOnUse">
<stop offset="0.13" stop-color="white"/>
<stop offset="0.29" stop-color="white" stop-opacity="0.69"/>
<stop offset="0.45" stop-color="white" stop-opacity="0.4"/>
<stop offset="0.59" stop-color="white" stop-opacity="0.18"/>
<stop offset="0.69" stop-color="white" stop-opacity="0.05"/>
<stop offset="0.74" stop-color="white" stop-opacity="0"/>
</radialGradient>
</defs>
</svg>
