<svg width="20" height="20" viewBox="0 0 20 20" fill="none" xmlns="http://www.w3.org/2000/svg">
<path d="M5.78373 4.16669C5.78342 4.84528 5.37173 5.45593 4.74278 5.71069C4.11383 5.96546 3.39322 5.81346 2.92075 5.32637C2.44827 4.83928 2.31829 4.11437 2.59208 3.49347C2.86588 2.87257 3.48878 2.47966 4.16706 2.50002C5.06796 2.52706 5.78414 3.26539 5.78373 4.16669ZM5.83373 7.06669H2.5004V17.5H5.83373V7.06669ZM11.1004 7.06669H7.78373V17.5H11.0671V12.025C11.0671 8.975 15.0421 8.69166 15.0421 12.025V17.5H18.3337V10.8917C18.3337 5.75002 12.4504 5.94169 11.0671 8.46666L11.1004 7.06669Z" fill="white"/>
</svg>
