<svg width="1440" height="263" viewBox="0 0 1440 263" fill="none" xmlns="http://www.w3.org/2000/svg">
<g clip-path="url(#clip0_8475_5)">
<mask id="mask0_8475_5" style="mask-type:alpha" maskUnits="userSpaceOnUse" x="-310" y="0" width="2060" height="1008">
<path d="M720 1007.82C1288.72 1007.82 1749.77 782.215 1749.77 503.912C1749.77 225.609 1288.72 0 720 0C151.275 0 -309.767 225.609 -309.767 503.912C-309.767 782.215 151.275 1007.82 720 1007.82Z" fill="url(#paint0_radial_8475_5)"/>
</mask>
<g mask="url(#mask0_8475_5)">
<path d="M1748.72 503.912C1748.72 781.93 1288.15 1007.31 720 1007.31C151.85 1007.31 -308.721 781.93 -308.721 503.912C-308.721 225.894 151.85 0.513672 720 0.513672C1288.15 0.513672 1748.72 225.894 1748.72 503.912Z" stroke="white" stroke-opacity="0.2"/>
<path d="M1027.54 503.353C1027.54 642.314 993.008 768.1 937.201 859.129C909.297 904.647 876.089 941.444 839.263 966.852C802.417 992.272 762.101 1006.19 720 1006.19C677.899 1006.19 637.581 992.272 600.738 966.852C563.911 941.444 530.703 904.647 502.799 859.129C446.992 768.1 412.46 642.314 412.46 503.353C412.46 364.392 446.992 238.606 502.799 147.577C530.703 102.059 563.911 65.2609 600.738 39.8537C637.581 14.4335 677.899 0.513672 720 0.513672C762.101 0.513672 802.417 14.4335 839.263 39.8537C876.089 65.2609 909.297 102.059 937.201 147.577C993.008 238.606 1027.54 364.392 1027.54 503.353Z" stroke="white" stroke-opacity="0.2"/>
<path d="M1336.13 503.353C1336.13 642.273 1267.08 768.015 1155.51 859.012C1043.93 950.019 889.918 1006.19 720 1006.19C550.082 1006.19 396.073 950.019 284.488 859.012C172.915 768.015 103.872 642.273 103.872 503.353C103.872 364.433 172.915 238.69 284.488 147.693C396.073 56.6872 550.082 0.513672 720 0.513672C889.918 0.513672 1043.93 56.6872 1155.51 147.693C1267.08 238.69 1336.13 364.433 1336.13 503.353Z" stroke="white" stroke-opacity="0.2"/>
<path d="M1541.86 503.353C1541.86 781.175 1173.7 1006.19 720.008 1006.19C266.316 1006.19 -101.844 781.175 -101.844 503.353C-101.844 225.531 266.316 0.513672 720.008 0.513672C1173.7 0.513672 1541.86 225.531 1541.86 503.353Z" stroke="white" stroke-opacity="0.2"/>
<path d="M720 1006.71V-6.10352e-05" stroke="white" stroke-opacity="0.2"/>
<path d="M106.254 100.111H1333.75" stroke="white" stroke-opacity="0.2"/>
<path d="M-100.605 200.79L1540.62 200.775" stroke="white" stroke-opacity="0.2"/>
</g>
</g>
<defs>
<radialGradient id="paint0_radial_8475_5" cx="0" cy="0" r="1" gradientUnits="userSpaceOnUse" gradientTransform="translate(720) rotate(90) scale(504.471 1030.91)">
<stop stop-color="#FAFAFA" stop-opacity="0"/>
<stop offset="1" stop-color="#FAFAFA"/>
</radialGradient>
<clipPath id="clip0_8475_5">
<rect width="1440" height="263" fill="white"/>
</clipPath>
</defs>
</svg>
